{"title":"Aljazeera_I_knew_bin_laden_part1_720p","uid":6401780,"size":662495019,"categoryP":"video","categoryS":"hd___tv_shows","magnet":"?xt=urn:btih:ac31135b2c13d19f62de3fd75b791d8277d20e36&amp;dn=Aljazeera_I_knew_bin_laden_part1_720p&amp;tr=udp%3A%2F%2Ftracker.openbittorrent.com%3A80&amp;tr=udp%3A%2F%2Fopen.demonii.com%3A1337&amp;tr=udp%3A%2F%2Ftracker.coppersurfer.tk%3A6969&amp;tr=udp%3A%2F%2Fexodus.desync.com%3A6969","seeders":0,"leechers":1,"uploader":"k0shur","files":2,"time":1305696496,"description":"Title: 'I Knew Bin Laden' \n\nAljazeera Documentary programme about the worlds most wanted man ,now dead, \nOsama Bin Laden.\n\n\n\n\nFile Info:__________________________________________________________________\n\nFormat                           : MPEG-4\nFile size                        : 632 MiB\nDuration                         : 45mn 17s\nOverall bit rate                 : 1 950 Kbps\n\nVideo\n\nFormat                           : AVC\nFormat/Info                      : Advanced Video Codec\nDuration                         : 45mn 17s\nBit rate mode                    : Variable\nBit rate                         : 1 804 Kbps\nMaximum bit rate                 : 5 773 Kbps\nWidth                            : 1 280 pixels\nHeight                           : 720 pixels\nDisplay aspect ratio             : 16:9\nFrame rate mode                  : Constant\nFrame rate                       : 25.000 fps\nScan type                        : Progressive\nBits/(Pixel*Frame)               : 0.078\nStream size                      : 584 MiB (92%)\n\nAudio\nFormat                           : AAC\nFormat/Info                      : Advanced Audio Codec\nBit rate mode                    : Variable\nBit rate                         : 144 Kbps\nMaximum bit rate                 : 214 Kbps\nChannel(s)                       : 2 channels\nChannel positions                : Front: L R\nSampling rate                    : 44.1 KHz\nCompression mode                 : Lossy\nStream size                      : 46.0 MiB (7%)\n\n___________________________________________________________________________________","torrent":{"xt":"urn:btih:ac31135b2c13d19f62de3fd75b791d8277d20e36","amp;dn":"Aljazeera_I_knew_bin_laden_part1_720p","amp;tr":["udp%3A%2F%2Ftracker.openbittorrent.com%3A80","udp%3A%2F%2Fopen.demonii.com%3A1337","udp%3A%2F%2Ftracker.coppersurfer.tk%3A6969","udp%3A%2F%2Fexodus.desync.com%3A6969"],"infoHash":"ac31135b2c13d19f62de3fd75b791d8277d20e36","infoHashBuffer":{"type":"Buffer","data":[172,49,19,91,44,19,209,159,98,222,63,215,91,121,29,130,119,210,14,54]},"announce":[],"urlList":[]}}